# xmcd
#
# Track frame offsets: 
#        150
#        16563
#        42028
#        63384
#        90185
#        109143
#        129449
#        157035
#        171001
#        193701
#        217639
#        270019
#
# Disc length: 3974 seconds
#
# Revision: 0
# Processed by: cddbd v1.5.2PL0 Copyright (c) Steve Scherf et al.
# Submitted via: ExactAudioCopy v1.0b3
#
DISCID=850f840c
DTITLE=Maggie Bell and Midnight Fever - Live Montreux July 1981
DYEAR=1900
DGENRE=
TTITLE0=Hey Boy
TTITLE1=Danger Money
TTITLE2=Love Games
TTITLE3=Sweet Lovin' Woman
TTITLE4=Poor Little Jimmy
TTITLE5=Rough TRade
TTITLE6=French Kiss
TTITLE7=Too Much Love
TTITLE8=Penicilin Blues
TTITLE9=Bring It On Home To Me (with Taj Mahal)
TTITLE10=Chain Gang (with Taj Mahal)
TTITLE11=Blues Jam (with Albert Collins)
EXTD=
EXTT0=
EXTT1=
EXTT2=
EXTT3=
EXTT4=
EXTT5=
EXTT6=
EXTT7=
EXTT8=
EXTT9=
EXTT10=
EXTT11=
PLAYORDER=
